#!OML:ASF H:\MichaelJackson\Top Level 1\Subject 1\Session 1\male.ASF
:FULLY-SPECIFIED
:DEGREES
72
root 21.2907 16.9251 -8.69278 6.56814 5.73999 -3.88916
lowerback 2.32599 0.635719 3.98618
upperback 1.24034 0.929955 1.08167
thorax 0.0146764 0.480385 -1.14473
lowerneck -6.93808 -0.843503 2.91172
upperneck 2.85414 -1.40176 0.348946
head 2.06802 -0.652874 -0.442176
rclavicle 2.68359e-015 -8.84592e-015
rhumerus -50.8211 -15.1858 -73.2066
rradius 39.8783
rwrist 2.19094
rhand -27.0809 -18.4412
rfingers 7.12502
rthumb -0.498264 -48.4203
lclavicle 2.68359e-015 -8.84592e-015
lhumerus -30.028 -4.39391 82.973
lradius 60.7196
lwrist 19.0832
lhand -12.1148 5.17607
lfingers 7.12502
lthumb 13.9463 34.6883
rfemur -27.2622 -5.82669 26.7326
rtibia 27.8028
rfoot -6.24138 -0.223394
rtoes 10.8474
lfemur -22.4101 15.5779 -15.0575
ltibia 73.7939
lfoot 3.8839 10.0428
ltoes 22.6098
73
root 21.2848 16.9234 -8.56186 6.53185 5.3552 -4.12586
lowerback 2.56013 0.674824 4.14166
upperback 1.32224 0.995227 1.14124
thorax -0.0272802 0.513789 -1.1745
lowerneck -6.8895 -0.677992 2.9485
upperneck 2.67811 -1.17463 0.220981
head 2.00383 -0.545163 -0.478927
rclavicle -1.34801e-014 2.83268e-015
rhumerus -49.7305 -15.9086 -72.9846
rradius 39.1594
rwrist 2.99898
rhand -29.8977 -21.0366
rfingers 7.12502
rthumb -3.21867 -50.9921
lclavicle -1.34801e-014 2.83268e-015
lhumerus -30.5817 -4.32294 83.4345
lradius 58.7114
lwrist 16.9367
lhand -17.9878 2.18064
lfingers 7.12502
lthumb 8.2821 31.9983
rfemur -26.8637 -5.60853 27.0366
rtibia 28.0495
rfoot -6.62087 -0.0878352
rtoes 11.7008
lfemur -23.9454 15.2732 -15.1765
ltibia 75.2264
lfoot 2.58467 8.71293
ltoes 21.5845
74
root 21.2803 16.9225 -8.43054 6.51456 5.03601 -4.35575
lowerback 2.75212 0.711156 4.30046
upperback 1.38493 1.05594 1.20448
thorax -0.0653297 0.544748 -1.20206
lowerneck -6.81471 -0.525782 3.00387
upperneck 2.53969 -0.965091 0.0543715
head 1.94745 -0.446464 -0.532008
rclavicle 3.2054e-015 -2.23633e-014
rhumerus -48.7296 -16.6333 -72.7796
rradius 38.578
rwrist 3.70851
rhand -32.4791 -23.9407
rfingers 7.12502
rthumb -5.71129 -53.8437
lclavicle 3.2054e-015 -2.23633e-014
lhumerus -31.0486 -4.33689 83.9062
lradius 56.5507
lwrist 14.9869
lhand -23.5114 0.0514012
lfingers 7.12502
lthumb 2.94925 30.0108
rfemur -26.4596 -5.46988 27.3304
rtibia 28.2659
rfoot -7.02911 0.0548717
rtoes 12.0493
lfemur -25.4527 14.8121 -15.3119
ltibia 76.3786
lfoot 1.27728 7.30533
ltoes 20.4686
75
root 21.2775 16.9225 -8.29872 6.51466 4.76666 -4.58778
lowerback 2.90934 0.756522 4.46925
upperback 1.42397 1.12842 1.27154
thorax -0.107195 0.581215 -1.23147
lowerneck -6.71921 -0.392203 3.0876
upperneck 2.44756 -0.781344 -0.148907
head 1.90273 -0.360585 -0.602849
rclavicle 6.68413e-015 1.47598e-014
rhumerus -47.8544 -17.2541 -72.653
rradius 38.1902
rwrist 4.24792
rhand -34.7877 -27.1767
rfingers 7.12502
rthumb -7.93989 -57.0076
lclavicle 6.68413e-015 1.47598e-014
lhumerus -31.4161 -4.39855 84.3946
lradius 54.2428
lwrist 13.2434
lhand -28.4419 -1.14633
lfingers 7.12502
lthumb -1.81268 28.8257
rfemur -26.0442 -5.40145 27.6227
rtibia 28.4418
rfoot -7.46773 0.217115
rtoes 12.0073
lfemur -26.9257 14.2262 -15.4483
ltibia 77.2508
lfoot 0.0587634 5.89583
ltoes 19.512
76
root 21.276 16.9238 -8.16599 6.52714 4.52951 -4.829
lowerback 3.03096 0.823329 4.64549
upperback 1.44434 1.22878 1.34391
thorax -0.146445 0.631383 -1.26016
lowerneck -6.61567 -0.28233 3.2087
upperneck 2.40273 -0.631339 -0.383803
head 1.87221 -0.291258 -0.691796
rclavicle 1.93318e-014 4.96962e-015
rhumerus -47.1203 -17.6508 -72.6692
rradius 38.0356
rwrist 4.57298
rhand -36.8138 -30.6054
rfingers 7.12502
rthumb -9.89502 -60.3528
lclavicle 1.93318e-014 4.96962e-015
lhumerus -31.6806 -4.48924 84.9028
lradius 51.8083
lwrist 11.6775
lhand -32.5563 -1.41098
lfingers 7.12502
lthumb -5.78585 28.49
rfemur -25.6057 -5.3832 27.9189
rtibia 28.5693
rfoot -7.93298 0.39241
rtoes 11.4302
lfemur -28.347 13.565 -15.5678
ltibia 77.8449
lfoot -1.03079 4.54537
ltoes 18.8063
77
root 21.2757 16.9254 -8.03231 6.55046 4.30468 -5.08529
lowerback 3.1289 0.919457 4.83851
upperback 1.44362 1.36847 1.41509
thorax -0.19105 0.700783 -1.30057
lowerneck -6.51729 -0.197106 3.37423
upperneck 2.41049 -0.517668 -0.636112
head 1.85992 -0.239317 -0.795843
rclavicle -4.34841e-016 1.03865e-014
rhumerus -46.5371 -17.7019 -72.894
rradius 38.11
rwrist 4.74669
rhand -38.5666 -34.078
rfingers 7.12502
rthumb -11.5857 -63.7378
lclavicle -4.34841e-016 1.03865e-014
lhumerus -31.8534 -4.59915 85.422
lradius 49.2682
lwrist 10.2289
lhand -35.5541 -0.84321
lfingers 7.12502
lthumb -8.67953 28.9584
rfemur -25.1451 -5.4054 28.2251
rtibia 28.6497
rfoot -8.42738 0.586104
rtoes 10.3977
lfemur -29.7062 12.8579 -15.6628
ltibia 78.1726
lfoot -2.00549 3.34377
ltoes 18.3486
78
root 21.2767 16.9276 -7.89742 6.58338 4.07572 -5.35616
lowerback 3.19987 1.05039 5.0365
upperback 1.42873 1.5539 1.48667
thorax -0.231672 0.792817 -1.34452
lowerneck -6.43257 -0.136667 3.57932
upperneck 2.45937 -0.440541 -0.892896
head 1.86346 -0.204758 -0.910156
rclavicle 1.40143e-014 -7.85199e-015
rhumerus -46.0934 -17.3126 -73.358
rradius 38.4038
rwrist 4.81847
rhand -39.9952 -37.4021
rfingers 7.12502
rthumb -12.9631 -66.9794
lclavicle 1.40143e-014 -7.85199e-015
lhumerus -31.9444 -4.72051 85.9555
lradius 46.6489
lwrist 8.79714
lhand -37.2844 0.47264
lfingers 7.12502
lthumb -10.349 30.198
rfemur -24.6624 -5.44972 28.5386
rtibia 28.6868
rfoot -8.94683 0.792943
rtoes 9.04757
lfemur -30.987 12.1433 -15.7288
ltibia 78.2427
lfoot -2.90629 2.34967
ltoes 18.1261
79
root 21.2788 16.9301 -7.76137 6.62864 3.83207 -5.63656
lowerback 3.25275 1.2127 5.24274
upperback 1.39912 1.78104 1.54811
thorax -0.273344 0.905354 -1.40467
lowerneck -6.37391 -0.0950258 3.81707
upperneck 2.54319 -0.392661 -1.13027
head 1.88297 -0.183508 -1.02584
rclavicle -2.95692e-015 -2.04251e-014
rhumerus -45.7863 -16.4315 -74.0816
rradius 38.8977
rwrist 4.86955
rhand -41.0571 -40.3471
rfingers 7.12502
rthumb -13.9867 -69.8566
lclavicle -2.95692e-015 -2.04251e-014
lhumerus -31.9762 -4.85053 86.4861
lradius 43.9829
lwrist 7.30913
lhand -37.6833 2.33871
lfingers 7.12502
lthumb -10.7338 32.0445
rfemur -24.1664 -5.5083 28.8529
rtibia 28.6914
rfoot -9.4825 1.01813
rtoes 7.55002
lfemur -32.1824 11.451 -15.771
ltibia 78.07
lfoot -3.77098 1.61396
ltoes 18.119
80
root 21.2815 16.9331 -7.62406 6.68569 3.575 -5.92125
lowerback 3.28433 1.40466 5.4453
upperback 1.36111 2.04663 1.5976
thorax -0.307831 1.03699 -1.47581
lowerneck -6.33875 -0.069881 4.08613
upperneck 2.63972 -0.371142 -1.33847
head 1.91056 -0.174114 -1.13934
rclavicle 1.72694e-014 1.68967e-015
rhumerus -45.6106 -15.0664 -75.044
rradius 39.5488
rwrist 5.00717
rhand -41.7496 -42.63
rfingers 7.12502
rthumb -14.6539 -72.0922
lclavicle 1.72694e-014 1.68967e-015
lhumerus -31.9741 -5.0036 87.0089
lradius 41.3159
lwrist 5.69811
lhand -36.7494 4.36501
lfingers 7.12502
lthumb -9.83287 34.1154
rfemur -23.661 -5.57365 29.1614
rtibia 28.6728
rfoot -10.0338 1.26311
rtoes 6.18436
lfemur -33.2951 10.8096 -15.798
ltibia 77.6658
lfoot -4.60729 1.16975
ltoes 18.1785
81
root 21.2852 16.9363 -7.48534 6.75741 3.29583 -6.20154
lowerback 3.29718 1.61869 5.64523
upperback 1.31508 2.34058 1.62685
thorax -0.336062 1.1827 -1.5666
lowerneck -6.33588 -0.0557793 4.37652
upperneck 2.74969 -0.368961 -1.50675
head 1.94801 -0.172889 -1.2453
rclavicle -5.13113e-015 -1.27222e-014
rhumerus -45.5682 -13.2704 -76.2039
rradius 40.3265
rwrist 5.33567
rhand -42.0977 -43.957
rfingers 7.12502
rthumb -14.9893 -73.3945
lclavicle -5.13113e-015 -1.27222e-014
lhumerus -31.972 -5.16448 87.4938
lradius 38.7022
lwrist 3.94317
lhand -34.6059 6.16983
lfingers 7.12502
lthumb -7.76438 36.0073
rfemur -23.1551 -5.65199 29.4549
rtibia 28.6426
rfoot -10.601 1.54851
rtoes 5.09942
lfemur -34.3244 10.2304 -15.8236
ltibia 77.0481
lfoot -5.42362 1.04402
ltoes 18.323
82
root 21.2897 16.9392 -7.34528 6.84489 2.99223 -6.47536
lowerback 3.29458 1.8474 5.84355
upperback 1.26287 2.6531 1.63322
thorax -0.357976 1.33763 -1.67982
lowerneck -6.37052 -0.042101 4.68204
upperneck 2.86615 -0.372241 -1.6316
head 1.9943 -0.172934 -1.34097
rclavicle 3.14018e-014 -1.50082e-014
rhumerus -45.6595 -11.1136 -77.5175
rradius 41.2331
rwrist 5.84796
rhand -42.1422 -44.1522
rfingers 7.12502
rthumb -15.0321 -73.5865
lclavicle 3.14018e-014 -1.50082e-014
lhumerus -31.9991 -5.32047 87.9204
lradius 36.2017
lwrist 2.04138
lhand -31.3893 7.51087
lfingers 7.12502
lthumb -4.65905 37.4396
rfemur -22.6548 -5.74132 29.7306
rtibia 28.6089
rfoot -11.1868 1.87222
rtoes 4.26893
lfemur -35.2825 9.73545 -15.8574
ltibia 76.2307
lfoot -6.20277 1.23888
ltoes 18.4068
83
root 21.2951 16.942 -7.20411 6.95239 2.66846 -6.74227
lowerback 3.27311 2.08196 6.04282
upperback 1.2074 2.972 1.61857
thorax -0.368996 1.49589 -1.81419
lowerneck -6.44684 -0.0224255 4.99157
upperneck 2.98425 -0.372049 -1.71701
head 2.0489 -0.170047 -1.42527
rclavicle 2.60284e-015 -1.01877e-014
rhumerus -45.8751 -8.6901 -78.9249
rradius 42.2535
rwrist 6.56403
rhand -41.9279 -43.1608
rfingers 7.12502
rthumb -14.8257 -72.6104
lclavicle 2.60284e-015 -1.01877e-014
lhumerus -32.0764 -5.46091 88.2789
lradius 33.8723
lwrist 0.0373546
lhand -27.389 8.39278
lfingers 7.12502
lthumb -0.795754 38.371
rfemur -22.2299 -5.84904 29.9881
rtibia 28.7089
rfoot -11.8524 2.24744
rtoes 4.12429
lfemur -36.1883 9.33163 -15.9015
ltibia 75.2653
lfoot -6.94528 1.72257
ltoes 18.5482
84
root 21.3012 16.9443 -7.06151 7.07636 2.31966 -6.99965
lowerback 3.2319 2.31644 6.2383
upperback 1.15408 3.2888 1.58524
thorax -0.363709 1.6535 -1.96394
lowerneck -6.56505 0.0116171 5.29854
upperneck 3.09782 -0.356816 -1.77205
head 2.11034 -0.158827 -1.4994
rclavicle -6.08778e-015 -7.20594e-016
rhumerus -46.2011 -6.08826 -80.3729
rradius 43.376
rwrist 7.44579
rhand -41.5049 -40.9731
rfingers 7.12502
rthumb -14.4182 -70.4523
lclavicle -6.08778e-015 -7.20594e-016
lhumerus -32.2444 -5.62108 88.5797
lradius 31.7922
lwrist -1.93731
lhand -22.7516 8.88924
lfingers 7.12502
lthumb 3.68295 38.8372
rfemur -21.8136 -5.97248 30.2243
rtibia 28.8106
rfoot -12.539 2.66949
rtoes 4.10938
lfemur -37.0337 9.02846 -15.9591
ltibia 74.1284
lfoot -7.61085 2.44098
ltoes 18.69
85
root 21.308 16.9248 -6.91841 7.21757 1.94536 -7.24704
lowerback 3.1658 2.54668 6.4261
upperback 1.10711 3.59715 1.53834
thorax -0.335763 1.80763 -2.12081
lowerneck -6.72823 0.0651579 5.59615
upperneck 3.20796 -0.319181 -1.80986
head 2.18002 -0.136034 -1.56608
rclavicle -2.51183e-014 -2.23881e-014
rhumerus -46.6098 -3.40864 -81.8018
rradius 44.5838
rwrist 8.43601
rhand -40.9105 -37.6929
rfingers 7.12502
rthumb -13.8454 -67.212
lclavicle -2.51183e-014 -2.23881e-014
lhumerus -32.5144 -5.83385 88.8547
lradius 30.0039
lwrist -3.76845
lhand -17.6409 9.10185
lfingers 7.12502
lthumb 8.61688 38.906
rfemur -21.4485 -6.10969 30.4431
rtibia 28.9478
rfoot -13.2362 3.13845
rtoes 4.25474
lfemur -37.9167 8.82252 -16.0358
ltibia 72.9254
lfoot -8.17865 3.34039
ltoes 18.8916
86
root 21.3156 16.9262 -6.77315 7.37741 1.54571 -7.48431
lowerback 3.0719 2.76737 6.60286
upperback 1.06965 3.8894 1.48407
thorax -0.281618 1.95468 -2.27579
lowerneck -6.93096 0.14335 5.87281
upperneck 3.30751 -0.250877 -1.83923
head 2.25508 -0.0980646 -1.62554
rclavicle -1.36478e-014 5.91384e-015
rhumerus -47.0691 -0.737768 -83.1532
rradius 45.8613
rwrist 9.5318
rhand -40.0465 -33.5303
rfingers 7.12502
rthumb -13.0126 -63.1045
lclavicle -1.36478e-014 5.91384e-015
lhumerus -32.8994 -6.14174 89.1472
lradius 28.5408
lwrist -5.34398
lhand -12.2329 9.21127
lfingers 7.12502
lthumb 13.8325 38.7313
rfemur -21.0388 -6.25201 30.6357
rtibia 29.0214
rfoot -13.9321 3.63947
rtoes 4.41868
lfemur -38.6566 8.71828 -16.121
ltibia 71.4641
lfoot -8.6236 4.32601
ltoes 19.1658
